<svg version="1.1" id="Layer_1" xmlns="http://www.w3.org/2000/svg" xmlns:xlink="http://www.w3.org/1999/xlink" x="0px" y="0px"
	 width="100%" viewBox="0 0 2048 2048" enable-background="new 0 0 2048 2048" xml:space="preserve">
<path fill="#010000" opacity="1.000000" stroke="none" 
	d="
M1.000000,771.000000 
	C1.000000,514.000000 1.000000,257.500000 1.000000,1.000000 
	C683.666687,1.000000 1366.333374,1.000000 2049.000000,1.000000 
	C2049.000000,683.666687 2049.000000,1366.333374 2049.000000,2049.000000 
	C1366.333374,2049.000000 683.666687,2049.000000 1.000000,2049.000000 
	C1.000000,1623.166626 1.000000,1197.333374 1.000000,771.000000 
M1720.651489,1485.301392 
	C1721.896240,1483.137085 1723.126831,1480.964478 1724.387451,1478.809448 
	C1771.916504,1397.566772 1819.457886,1316.331665 1866.976440,1235.083008 
	C1908.944580,1163.325073 1950.866089,1091.540039 1992.908813,1019.825928 
	C1994.851807,1016.511780 1994.868164,1014.015198 1992.959473,1010.690857 
	C1970.232056,971.105530 1947.611816,931.458557 1925.030151,891.789795 
	C1886.543091,824.180603 1848.137451,756.525024 1809.635010,688.924561 
	C1766.513550,613.214661 1723.304688,537.554504 1680.165894,461.854523 
	C1625.481079,365.893127 1570.798828,269.930237 1516.260864,173.885361 
	C1513.859375,169.656067 1511.188477,168.236618 1506.440063,168.251404 
	C1479.609985,168.334991 1452.778687,168.100204 1425.947998,167.949341 
	C1132.143311,166.297256 838.338684,164.645447 544.534302,162.935715 
	C540.481201,162.912125 537.539917,163.367615 535.147034,167.493713 
	C506.315094,217.209915 477.272919,266.804321 448.256531,316.413483 
	C399.472931,399.818604 350.651123,483.201355 301.877808,566.612488 
	C256.129364,644.850525 210.441071,723.123718 164.692261,801.361572 
	C126.093185,867.372253 87.467041,933.367188 48.756546,999.312500 
	C46.753925,1002.724060 46.423252,1005.431335 48.523884,1008.943848 
	C54.507420,1018.949158 60.163181,1029.150757 65.935707,1039.282104 
	C120.203987,1134.528320 174.467880,1229.777222 228.736633,1325.023315 
	C273.683807,1403.908936 318.632111,1482.793945 363.587006,1561.675293 
	C392.374420,1612.187866 421.186066,1662.686523 449.965637,1713.203491 
	C474.705688,1756.630005 499.535339,1800.006592 523.994568,1843.590942 
	C527.214539,1849.328491 530.739136,1851.227295 537.242188,1851.257935 
	C742.223022,1852.221191 947.202698,1853.399414 1152.182617,1854.548950 
	C1267.338013,1855.194702 1382.493530,1855.818359 1497.647949,1856.607300 
	C1502.151978,1856.638184 1504.558960,1855.150635 1506.669678,1851.360840 
	C1512.503296,1840.886108 1518.707886,1830.618164 1524.760254,1820.265137 
	C1554.940674,1768.637207 1585.114258,1717.005005 1615.300415,1665.380127 
	C1650.280762,1605.556396 1685.271606,1545.739014 1720.651489,1485.301392 
z"/>
<path fill="#FBFBF9" opacity="1.000000" stroke="none" 
	d="
M1720.454712,1485.610107 
	C1685.271606,1545.739014 1650.280762,1605.556396 1615.300415,1665.380127 
	C1585.114258,1717.005005 1554.940674,1768.637207 1524.760254,1820.265137 
	C1518.707886,1830.618164 1512.503296,1840.886108 1506.669678,1851.360840 
	C1504.558960,1855.150635 1502.151978,1856.638184 1497.647949,1856.607300 
	C1382.493530,1855.818359 1267.338013,1855.194702 1152.182617,1854.548950 
	C947.202698,1853.399414 742.223022,1852.221191 537.242188,1851.257935 
	C530.739136,1851.227295 527.214539,1849.328491 523.994568,1843.590942 
	C499.535339,1800.006592 474.705688,1756.630005 449.965637,1713.203491 
	C421.186066,1662.686523 392.374420,1612.187866 363.587006,1561.675293 
	C318.632111,1482.793945 273.683807,1403.908936 228.736633,1325.023315 
	C174.467880,1229.777222 120.203987,1134.528320 65.935707,1039.282104 
	C60.163181,1029.150757 54.507420,1018.949158 48.523884,1008.943848 
	C46.423252,1005.431335 46.753925,1002.724060 48.756546,999.312500 
	C87.467041,933.367188 126.093185,867.372253 164.692261,801.361572 
	C210.441071,723.123718 256.129364,644.850525 301.877808,566.612488 
	C350.651123,483.201355 399.472931,399.818604 448.256531,316.413483 
	C477.272919,266.804321 506.315094,217.209915 535.147034,167.493713 
	C537.539917,163.367615 540.481201,162.912125 544.534302,162.935715 
	C838.338684,164.645447 1132.143311,166.297256 1425.947998,167.949341 
	C1452.778687,168.100204 1479.609985,168.334991 1506.440063,168.251404 
	C1511.188477,168.236618 1513.859375,169.656067 1516.260864,173.885361 
	C1570.798828,269.930237 1625.481079,365.893127 1680.165894,461.854523 
	C1723.304688,537.554504 1766.513550,613.214661 1809.635010,688.924561 
	C1848.137451,756.525024 1886.543091,824.180603 1925.030151,891.789795 
	C1947.611816,931.458557 1970.232056,971.105530 1992.959473,1010.690857 
	C1994.868164,1014.015198 1994.851807,1016.511780 1992.908813,1019.825928 
	C1950.866089,1091.540039 1908.944580,1163.325073 1866.976440,1235.083008 
	C1819.457886,1316.331665 1771.916504,1397.566772 1724.387451,1478.809448 
	C1723.126831,1480.964478 1721.896240,1483.137085 1720.454712,1485.610107 
M1725.055542,1392.544189 
	C1746.134521,1356.434814 1767.186157,1320.309570 1788.298096,1284.219604 
	C1838.835571,1197.828247 1889.384766,1111.443604 1940.024292,1025.112183 
	C1941.820801,1022.049622 1941.562012,1019.815613 1939.862427,1016.932068 
	C1933.857544,1006.744263 1928.084106,996.419983 1922.229126,986.143982 
	C1867.651367,890.356445 1813.081909,794.564209 1758.495972,698.781311 
	C1714.873657,622.236084 1671.228149,545.703979 1627.599487,469.162262 
	C1580.838013,387.124115 1534.063721,305.093170 1487.398438,223.000229 
	C1485.432617,219.542023 1483.319702,218.160385 1479.233643,218.138809 
	C1174.907715,216.532791 870.582153,214.820709 566.257263,213.024979 
	C562.307312,213.001663 560.025391,214.076050 557.958008,217.619629 
	C502.904297,311.985199 447.716736,406.272675 392.561096,500.578796 
	C338.918152,592.298462 285.287903,684.025574 231.647430,775.746704 
	C186.755203,852.508972 141.881821,929.282288 96.877701,1005.978882 
	C94.823174,1009.480225 94.781990,1012.024109 96.791107,1015.521423 
	C117.116859,1050.902832 137.278214,1086.378784 157.474182,1121.834717 
	C228.200470,1246.001099 298.911743,1370.176025 369.648865,1494.336182 
	C429.255280,1598.959351 488.912445,1703.553589 548.425232,1808.229980 
	C550.703918,1812.237915 553.232117,1813.614258 557.814819,1813.638550 
	C861.807617,1815.254272 1165.799805,1816.983154 1469.791260,1818.833130 
	C1474.249634,1818.860229 1476.599243,1817.479492 1478.802246,1813.694580 
	C1510.888916,1758.567505 1543.130371,1703.530273 1575.336304,1648.472534 
	C1625.116333,1563.371216 1674.897461,1478.270752 1725.055542,1392.544189 
z"/>
<path fill="#050403" opacity="1.000000" stroke="none" 
	d="
M1724.866821,1392.857056 
	C1674.897461,1478.270752 1625.116333,1563.371216 1575.336304,1648.472534 
	C1543.130371,1703.530273 1510.888916,1758.567505 1478.802246,1813.694580 
	C1476.599243,1817.479492 1474.249634,1818.860229 1469.791260,1818.833130 
	C1165.799805,1816.983154 861.807617,1815.254272 557.814819,1813.638550 
	C553.232117,1813.614258 550.703918,1812.237915 548.425232,1808.229980 
	C488.912445,1703.553589 429.255280,1598.959351 369.648865,1494.336182 
	C298.911743,1370.176025 228.200470,1246.001099 157.474182,1121.834717 
	C137.278214,1086.378784 117.116859,1050.902832 96.791107,1015.521423 
	C94.781990,1012.024109 94.823174,1009.480225 96.877701,1005.978882 
	C141.881821,929.282288 186.755203,852.508972 231.647430,775.746704 
	C285.287903,684.025574 338.918152,592.298462 392.561096,500.578796 
	C447.716736,406.272675 502.904297,311.985199 557.958008,217.619629 
	C560.025391,214.076050 562.307312,213.001663 566.257263,213.024979 
	C870.582153,214.820709 1174.907715,216.532791 1479.233643,218.138809 
	C1483.319702,218.160385 1485.432617,219.542023 1487.398438,223.000229 
	C1534.063721,305.093170 1580.838013,387.124115 1627.599487,469.162262 
	C1671.228149,545.703979 1714.873657,622.236084 1758.495972,698.781311 
	C1813.081909,794.564209 1867.651367,890.356445 1922.229126,986.143982 
	C1928.084106,996.419983 1933.857544,1006.744263 1939.862427,1016.932068 
	C1941.562012,1019.815613 1941.820801,1022.049622 1940.024292,1025.112183 
	C1889.384766,1111.443604 1838.835571,1197.828247 1788.298096,1284.219604 
	C1767.186157,1320.309570 1746.134521,1356.434814 1724.866821,1392.857056 
M227.941376,855.501648 
	C198.415894,905.965027 168.921494,956.446777 139.292450,1006.849243 
	C137.388748,1010.087585 137.728638,1012.461914 139.471298,1015.516174 
	C186.523056,1097.981689 233.479019,1180.501709 280.491486,1262.989502 
	C334.020477,1356.911255 387.605255,1450.801392 441.134247,1544.723145 
	C484.268890,1620.406982 527.376099,1696.106445 570.402710,1771.851807 
	C572.375244,1775.324341 574.621582,1776.635620 578.677917,1776.653442 
	C643.339050,1776.935913 707.999268,1777.422729 772.660034,1777.802124 
	C889.984192,1778.490356 1007.308472,1779.157837 1124.632935,1779.797485 
	C1232.459106,1780.385254 1340.285645,1780.891235 1448.110962,1781.596436 
	C1452.919189,1781.627930 1455.503296,1780.108032 1457.898804,1775.991943 
	C1494.681763,1712.789917 1531.618774,1649.677490 1568.547729,1586.560303 
	C1621.876831,1495.412964 1675.253052,1404.293091 1728.563232,1313.134644 
	C1784.563721,1217.375732 1840.486084,1121.571045 1896.571655,1025.862061 
	C1898.730347,1022.178284 1898.682495,1019.573975 1896.598633,1015.940308 
	C1869.916260,969.414307 1843.385986,922.800964 1816.837769,876.197998 
	C1778.253662,808.466980 1739.700073,740.718567 1701.107666,672.992371 
	C1667.626465,614.235901 1634.098145,555.506287 1600.610229,496.753662 
	C1555.656128,417.884308 1510.694946,339.018982 1465.862915,260.080170 
	C1463.835815,256.510590 1461.564819,255.365082 1457.590942,255.346542 
	C1390.263428,255.032455 1322.936768,254.559189 1255.609619,254.150467 
	C1199.614136,253.810516 1143.618286,253.504700 1087.622681,253.191071 
	C1022.294250,252.825180 956.965881,252.455261 891.637390,252.108597 
	C790.310913,251.570923 688.984253,251.060013 587.657959,250.488113 
	C584.159424,250.468369 581.520142,250.788559 579.412598,254.403458 
	C534.276306,331.820953 488.997559,409.155426 443.739502,486.501953 
	C405.129761,552.486450 366.495911,618.456787 327.901398,684.450195 
	C294.686218,741.245422 261.511627,798.064453 227.941376,855.501648 
z"/>
<path fill="#F9B700" opacity="1.000000" stroke="none" 
	d="
M228.130219,855.187317 
	C261.511627,798.064453 294.686218,741.245422 327.901398,684.450195 
	C366.495911,618.456787 405.129761,552.486450 443.739502,486.501953 
	C488.997559,409.155426 534.276306,331.820953 579.412598,254.403458 
	C581.520142,250.788559 584.159424,250.468369 587.657959,250.488113 
	C688.984253,251.060013 790.310913,251.570923 891.637390,252.108597 
	C956.965881,252.455261 1022.294250,252.825180 1087.622681,253.191071 
	C1143.618286,253.504700 1199.614136,253.810516 1255.609619,254.150467 
	C1322.936768,254.559189 1390.263428,255.032455 1457.590942,255.346542 
	C1461.564819,255.365082 1463.835815,256.510590 1465.862915,260.080170 
	C1510.694946,339.018982 1555.656128,417.884308 1600.610229,496.753662 
	C1634.098145,555.506287 1667.626465,614.235901 1701.107666,672.992371 
	C1739.700073,740.718567 1778.253662,808.466980 1816.837769,876.197998 
	C1843.385986,922.800964 1869.916260,969.414307 1896.598633,1015.940308 
	C1898.682495,1019.573975 1898.730347,1022.178284 1896.571655,1025.862061 
	C1840.486084,1121.571045 1784.563721,1217.375732 1728.563232,1313.134644 
	C1675.253052,1404.293091 1621.876831,1495.412964 1568.547729,1586.560303 
	C1531.618774,1649.677490 1494.681763,1712.789917 1457.898804,1775.991943 
	C1455.503296,1780.108032 1452.919189,1781.627930 1448.110962,1781.596436 
	C1340.285645,1780.891235 1232.459106,1780.385254 1124.632935,1779.797485 
	C1007.308472,1779.157837 889.984192,1778.490356 772.660034,1777.802124 
	C707.999268,1777.422729 643.339050,1776.935913 578.677917,1776.653442 
	C574.621582,1776.635620 572.375244,1775.324341 570.402710,1771.851807 
	C527.376099,1696.106445 484.268890,1620.406982 441.134247,1544.723145 
	C387.605255,1450.801392 334.020477,1356.911255 280.491486,1262.989502 
	C233.479019,1180.501709 186.523056,1097.981689 139.471298,1015.516174 
	C137.728638,1012.461914 137.388748,1010.087585 139.292450,1006.849243 
	C168.921494,956.446777 198.415894,905.965027 228.130219,855.187317 
M1146.440186,779.130066 
	C1146.279541,779.436523 1146.118774,779.742920 1145.965698,779.967834 
	C1145.965698,779.967834 1146.047241,779.961243 1145.338379,779.920593 
	C1138.724487,786.899658 1131.717041,793.549561 1125.560547,800.911133 
	C1086.031616,848.177673 1065.732056,903.230347 1061.468140,964.212463 
	C1059.519043,992.088684 1060.123779,1020.020325 1066.855713,1047.545898 
	C1074.297729,1077.976074 1087.726562,1104.937622 1110.441162,1126.817871 
	C1129.888428,1145.551025 1152.530762,1159.823975 1175.905151,1173.049438 
	C1218.251709,1197.009277 1263.584595,1214.464111 1307.956543,1234.032959 
	C1326.163086,1242.062256 1344.761353,1249.755249 1361.664307,1260.084106 
	C1410.575073,1289.971680 1426.637207,1336.662476 1414.315552,1389.607910 
	C1411.784180,1400.485107 1406.748779,1410.779419 1402.557739,1421.892578 
	C1384.898438,1435.091797 1365.298828,1444.222412 1344.024780,1449.867554 
	C1308.808350,1459.212158 1272.981079,1460.171509 1237.035156,1456.619629 
	C1207.701172,1453.721069 1179.168457,1446.697144 1151.451050,1436.537354 
	C1100.928955,1418.018433 1055.693481,1390.461670 1014.465698,1356.142334 
	C1010.977173,1353.238403 1008.602051,1353.776245 1006.132751,1356.600220 
	C997.154724,1366.868652 988.216919,1377.175171 979.478333,1387.646240 
	C978.329956,1389.022217 978.424377,1391.435425 977.958069,1394.078125 
	C976.804382,1399.066650 975.533020,1404.031372 974.518066,1409.047974 
	C970.707764,1427.880127 966.985718,1446.730225 963.221863,1465.571899 
	C959.458252,1484.412476 955.649475,1503.244385 951.924561,1522.092651 
	C948.265686,1540.607178 944.687195,1559.137451 940.882568,1578.420410 
	C940.806702,1579.983643 940.730835,1581.546753 940.655029,1583.109985 
	C942.416931,1582.395386 944.178772,1581.680786 946.580505,1581.280518 
	C967.441101,1589.450439 988.103027,1598.179565 1009.203369,1605.674561 
	C1054.190552,1621.654175 1100.187134,1633.989746 1147.648438,1639.907837 
	C1171.226685,1642.847778 1194.941895,1645.369629 1218.665405,1646.309204 
	C1256.814697,1647.820190 1294.790405,1644.966431 1332.477295,1638.371948 
	C1370.009033,1631.804688 1406.064941,1620.801025 1440.216919,1603.842773 
	C1475.178345,1586.482666 1506.011841,1563.525879 1532.429321,1534.761597 
	C1535.443359,1531.479736 1537.546875,1527.361572 1540.305420,1523.027588 
	C1548.687256,1514.759277 1557.501221,1506.881348 1565.378906,1498.157715 
	C1609.561157,1449.232178 1631.191772,1390.886475 1636.460327,1325.872314 
	C1638.809570,1296.883301 1637.851929,1268.063354 1631.976074,1239.459229 
	C1624.279053,1201.989990 1608.162964,1168.758789 1582.605347,1140.251465 
	C1554.741699,1109.172241 1520.870483,1086.052124 1483.563477,1068.106934 
	C1448.709717,1051.341797 1413.092407,1036.171265 1378.016724,1019.856995 
	C1350.661987,1007.133789 1324.312378,992.601868 1301.465210,972.528992 
	C1289.710449,962.201477 1278.756348,950.791443 1274.402466,935.502502 
	C1267.067749,909.745239 1273.295410,885.649109 1286.878052,862.589417 
	C1287.743286,862.098206 1288.662354,861.682129 1289.465820,861.104919 
	C1319.095215,839.818909 1352.858032,830.741699 1388.635376,829.022766 
	C1422.633423,827.389282 1456.462280,829.826904 1489.899780,836.904297 
	C1523.981567,844.118164 1556.578979,855.341125 1586.204346,873.758423 
	C1601.411255,883.212158 1615.358276,894.692566 1629.994385,905.994690 
	C1631.086914,911.646484 1633.610718,908.851868 1635.558838,906.767334 
	C1642.829102,898.988220 1649.776855,890.899719 1657.215820,883.289185 
	C1661.753784,878.646545 1664.804199,873.838135 1665.961426,867.148926 
	C1669.070801,849.175537 1673.004639,831.343628 1676.677246,813.469238 
	C1681.317749,790.884827 1686.042969,768.317749 1690.695068,745.735718 
	C1693.908203,730.138245 1697.047241,714.525574 1700.249023,698.925720 
	C1700.835938,696.066345 1700.607422,694.241455 1697.282471,692.764160 
	C1665.821289,678.786133 1633.450806,667.497681 1600.026123,659.260803 
	C1565.270508,650.695740 1530.047119,645.296265 1494.290649,643.103333 
	C1460.812256,641.050171 1427.444946,641.302917 1394.084595,645.106567 
	C1366.957397,648.199524 1340.337646,653.526550 1314.335327,661.815308 
	C1262.108765,678.463501 1215.963257,705.392517 1177.161499,744.279541 
	C1166.861328,754.602234 1157.729614,766.090881 1147.761841,777.515381 
	C1147.490112,777.999268 1147.218384,778.483154 1146.965088,778.942566 
	C1146.965088,778.942566 1146.946289,778.918274 1146.440186,779.130066 
M451.927338,1076.375122 
	C451.324036,1075.852661 450.720734,1075.330322 449.827209,1074.218140 
	C447.675842,1071.732910 445.524475,1069.247559 443.244354,1066.098755 
	C438.890228,1061.692383 438.885529,1067.966309 436.292236,1068.901855 
	C436.292236,1068.901855 436.063751,1069.211548 435.432648,1069.246582 
	C434.555603,1070.123657 433.678589,1071.000732 432.236450,1072.138672 
	C431.156799,1073.092041 430.077148,1074.045410 428.357361,1075.095825 
	C427.493256,1076.015259 426.629181,1076.934570 425.210114,1078.139404 
	C424.152435,1079.118652 423.094757,1080.098022 421.403503,1081.149170 
	C420.580505,1082.081421 419.757507,1083.013672 418.994202,1084.002197 
	C418.994202,1084.002197 418.947968,1083.935181 418.300751,1084.057251 
	C417.130219,1085.328247 415.959656,1086.599365 414.375000,1088.056519 
	C414.108429,1088.232788 413.939117,1088.476562 413.203552,1088.945190 
	C406.214783,1094.827393 399.153931,1100.627686 392.298645,1106.661499 
	C390.946259,1107.851929 387.459045,1108.879272 390.347626,1112.789429 
	C387.673492,1126.835693 385.041779,1140.890015 382.317078,1154.926514 
	C374.996887,1192.636597 367.598785,1230.331543 360.310242,1268.047729 
	C357.092834,1284.696777 354.065674,1301.382690 350.770569,1318.723389 
	C348.163116,1321.721924 348.579346,1323.385132 353.353760,1323.760498 
	C354.774475,1324.599731 356.153015,1325.522217 357.621948,1326.266235 
	C427.450104,1361.628662 501.061157,1383.564941 579.356323,1389.229736 
	C627.113892,1392.685059 674.533508,1391.107178 721.399658,1380.711914 
	C770.437134,1369.834839 815.238464,1349.962769 853.241150,1316.471924 
	C860.782471,1309.826050 867.202271,1301.907471 874.500000,1294.064575 
	C876.435059,1292.769287 878.390320,1291.503052 880.302124,1290.174316 
	C924.907043,1259.174683 954.575256,1216.822021 973.834229,1166.664673 
	C990.775513,1122.543213 1001.333740,1076.663208 1010.725342,1030.486084 
	C1019.812805,985.803772 1028.793091,941.099792 1037.823730,896.406006 
	C1045.898682,856.442261 1053.997925,816.483521 1062.050415,776.515259 
	C1070.168457,736.221252 1078.211792,695.912231 1086.343628,655.621033 
	C1094.112427,617.128601 1101.963257,578.652710 1109.759644,540.165771 
	C1117.984985,499.561615 1126.197266,458.954803 1134.393066,418.344666 
	C1135.854248,411.105621 1137.207275,403.844788 1138.698486,396.137848 
	C1136.529663,396.137848 1135.052490,396.145050 1133.575195,396.136810 
	C1000.617737,395.394714 867.660095,394.672028 734.703247,393.827942 
	C729.731995,393.796417 725.575562,395.005310 721.928894,398.222656 
	C707.573853,410.887604 693.183228,423.513550 678.988342,436.355682 
	C678.064270,437.191681 678.673767,439.722809 678.484680,442.257660 
	C671.187317,477.595306 663.864075,512.927673 656.604553,548.273071 
	C653.394043,563.904358 650.312622,579.562073 646.864136,595.828186 
	C646.127502,597.538269 645.390869,599.248413 644.654175,600.958496 
	C646.609985,600.641663 648.565796,600.324829 651.523315,600.059937 
	C666.515259,600.227417 681.506897,600.470032 696.499268,600.548889 
	C750.479553,600.832825 804.460083,601.062866 858.440552,601.308350 
	C862.837280,601.328369 867.234070,601.310974 872.013367,601.310974 
	C866.357239,629.442749 860.977478,656.345337 855.534302,683.235046 
	C849.163940,714.704834 842.692627,746.154236 836.347900,777.629211 
	C827.766479,820.199646 819.291504,862.791565 810.718994,905.363831 
	C803.460022,941.413086 796.151123,977.452393 788.819153,1013.486877 
	C783.444580,1039.901367 778.411621,1066.394897 772.466064,1092.681274 
	C766.426880,1119.381836 757.526062,1145.150513 743.962219,1168.998535 
	C743.962219,1168.998535 744.093689,1168.939819 743.871704,1169.317505 
	C743.694031,1169.547729 743.508850,1169.771606 742.815491,1170.532227 
	C723.555237,1179.253418 703.076416,1182.730469 682.209045,1183.869141 
	C620.236145,1187.250610 563.995361,1170.908691 513.743774,1134.251709 
	C494.561493,1120.258789 477.312622,1104.149780 460.852539,1086.380737 
	C459.927917,1085.543945 459.003265,1084.707153 457.792694,1083.291138 
	C456.479095,1081.883545 455.165497,1080.475830 453.763153,1078.477173 
	C453.180725,1077.978516 452.598328,1077.479858 452.000000,1077.000000 
	C452.000000,1077.000000 452.018494,1076.985229 451.927338,1076.375122 
z"/>
<path fill="#010100" opacity="1.000000" stroke="none" 
	d="
M1148.061401,777.044128 
	C1157.729614,766.090881 1166.861328,754.602234 1177.161499,744.279541 
	C1215.963257,705.392517 1262.108765,678.463501 1314.335327,661.815308 
	C1340.337646,653.526550 1366.957397,648.199524 1394.084595,645.106567 
	C1427.444946,641.302917 1460.812256,641.050171 1494.290649,643.103333 
	C1530.047119,645.296265 1565.270508,650.695740 1600.026123,659.260803 
	C1633.450806,667.497681 1665.821289,678.786133 1697.282471,692.764160 
	C1700.607422,694.241455 1700.835938,696.066345 1700.249023,698.925720 
	C1697.047241,714.525574 1693.908203,730.138245 1690.695068,745.735718 
	C1686.042969,768.317749 1681.317749,790.884827 1676.677246,813.469238 
	C1673.004639,831.343628 1669.070801,849.175537 1665.961426,867.148926 
	C1664.804199,873.838135 1661.753784,878.646545 1657.215820,883.289185 
	C1649.776855,890.899719 1642.829102,898.988220 1635.558838,906.767334 
	C1633.610718,908.851868 1631.086914,911.646484 1630.221680,905.421631 
	C1632.038940,902.761414 1633.628906,900.674194 1635.558350,898.471680 
	C1644.008301,888.945801 1652.118896,879.535156 1660.609253,869.683655 
	C1654.426880,864.814209 1648.957397,860.506348 1643.258667,855.914185 
	C1629.541992,847.121887 1616.660889,837.399231 1602.463623,830.313293 
	C1536.462769,797.371887 1466.441162,787.321106 1393.679077,797.071228 
	C1361.550415,801.376465 1332.611816,814.256714 1308.253906,836.209412 
	C1299.627197,843.984375 1291.590088,852.354553 1286.338257,862.948975 
	C1273.295410,885.649109 1267.067749,909.745239 1274.402466,935.502502 
	C1278.756348,950.791443 1289.710449,962.201477 1301.465210,972.528992 
	C1324.312378,992.601868 1350.661987,1007.133789 1378.016724,1019.856995 
	C1413.092407,1036.171265 1448.709717,1051.341797 1483.563477,1068.106934 
	C1520.870483,1086.052124 1554.741699,1109.172241 1582.605347,1140.251465 
	C1608.162964,1168.758789 1624.279053,1201.989990 1631.976074,1239.459229 
	C1637.851929,1268.063354 1638.809570,1296.883301 1636.460327,1325.872314 
	C1631.191772,1390.886475 1609.561157,1449.232178 1565.378906,1498.157715 
	C1557.501221,1506.881348 1548.687256,1514.759277 1539.853516,1523.487671 
	C1536.951050,1525.868408 1534.462402,1527.742554 1532.055420,1529.716309 
	C1487.871460,1565.946899 1437.004028,1587.976074 1381.556274,1599.932861 
	C1321.061035,1612.978149 1259.946167,1614.303223 1198.623535,1607.689453 
	C1148.309082,1602.263062 1099.220703,1590.859741 1051.430664,1574.302979 
	C1026.944458,1565.819580 1002.943359,1555.938965 978.676208,1546.814453 
	C977.125549,1546.231323 974.259766,1545.971558 973.538574,1546.837769 
	C964.177429,1558.079224 955.094055,1569.551880 945.940674,1580.966187 
	C944.178772,1581.680786 942.416931,1582.395386 940.655029,1583.109985 
	C940.730835,1581.546753 940.806702,1579.983643 941.271545,1577.934570 
	C950.901184,1566.077515 960.278503,1554.812744 969.289307,1543.262207 
	C971.630005,1540.261719 973.657471,1536.540039 974.418152,1532.858154 
	C981.556213,1498.309814 988.441406,1463.708862 995.269226,1429.097290 
	C996.936340,1420.646362 998.124878,1412.101074 999.831421,1403.267334 
	C1002.675354,1390.393799 1005.221436,1377.851929 1007.767456,1365.310059 
	C1003.116516,1368.862061 999.623962,1372.631958 996.197876,1376.461426 
	C991.918945,1381.244385 987.694824,1386.076416 983.106567,1390.910156 
	C981.158447,1391.744751 979.550842,1392.556519 977.943176,1393.368164 
	C978.424377,1391.435425 978.329956,1389.022217 979.478333,1387.646240 
	C988.216919,1377.175171 997.154724,1366.868652 1006.132751,1356.600220 
	C1008.602051,1353.776245 1010.977173,1353.238403 1014.465698,1356.142334 
	C1055.693481,1390.461670 1100.928955,1418.018433 1151.451050,1436.537354 
	C1179.168457,1446.697144 1207.701172,1453.721069 1237.035156,1456.619629 
	C1272.981079,1460.171509 1308.808350,1459.212158 1344.024780,1449.867554 
	C1365.298828,1444.222412 1384.898438,1435.091797 1403.049438,1421.474854 
	C1437.359253,1394.645874 1451.067017,1359.274658 1449.616577,1317.243652 
	C1448.508789,1285.144897 1435.502441,1258.491455 1410.905151,1238.146606 
	C1400.228760,1229.316040 1388.442139,1221.188721 1375.948120,1215.322388 
	C1346.323975,1201.412354 1315.984253,1189.025024 1285.918213,1176.058350 
	C1245.854980,1158.780029 1206.577148,1140.040771 1170.538940,1115.122314 
	C1142.867676,1095.989380 1120.347412,1072.598633 1107.499878,1040.872192 
	C1098.078613,1017.606873 1093.631714,993.375488 1092.600464,968.405762 
	C1090.692627,922.207275 1097.434692,877.503357 1115.335571,834.659119 
	C1123.457764,815.219299 1134.238037,797.310913 1146.047241,779.961243 
	C1146.047241,779.961243 1145.965698,779.967834 1146.211304,779.912476 
	C1146.619995,779.544189 1146.783203,779.231201 1146.946289,778.918274 
	C1146.946289,778.918274 1146.965088,778.942566 1147.158447,778.757202 
	C1147.588379,778.062622 1147.824951,777.553345 1148.061401,777.044128 
z"/>
<path fill="#010100" opacity="1.000000" stroke="none" 
	d="
M413.867096,1088.787964 
	C413.939117,1088.476562 414.108429,1088.232788 414.938965,1087.978271 
	C416.651306,1086.578491 417.799652,1085.256836 418.947998,1083.935181 
	C418.947968,1083.935181 418.994202,1084.002197 419.305359,1083.974854 
	C420.423340,1082.990723 421.230225,1082.033936 422.037109,1081.077271 
	C423.094757,1080.098022 424.152435,1079.118652 425.841492,1078.028564 
	C427.314423,1076.944580 428.155975,1075.971680 428.997528,1074.998657 
	C430.077148,1074.045410 431.156799,1073.092041 432.860931,1072.031738 
	C434.344849,1071.020508 435.204285,1070.115967 436.063751,1069.211548 
	C436.063751,1069.211548 436.292236,1068.901855 436.869232,1068.882324 
	C439.421875,1068.162598 441.397522,1067.462524 443.373138,1066.762451 
	C445.524475,1069.247559 447.675842,1071.732910 449.964294,1074.850586 
	C450.740417,1075.983887 451.379456,1076.484497 452.018494,1076.985229 
	C452.018494,1076.985229 452.000000,1077.000000 452.012451,1077.307739 
	C452.633881,1078.099731 453.242889,1078.583984 453.851868,1079.068237 
	C455.165497,1080.475830 456.479095,1081.883545 457.922485,1083.927979 
	C459.023895,1085.380005 459.995544,1086.195068 460.967224,1087.010010 
	C477.312622,1104.149780 494.561493,1120.258789 513.743774,1134.251709 
	C563.995361,1170.908691 620.236145,1187.250610 682.209045,1183.869141 
	C703.076416,1182.730469 723.555237,1179.253418 743.361816,1170.206055 
	C743.969971,1169.566650 744.031799,1169.253174 744.093628,1168.939819 
	C744.093689,1168.939819 743.962219,1168.998535 744.345947,1169.252930 
	C745.655151,1169.148315 746.610046,1168.850342 747.501892,1168.421265 
	C770.219299,1157.489136 785.758789,1139.548218 797.232666,1117.593262 
	C812.665833,1088.062500 820.547119,1056.141235 827.060791,1023.782898 
	C836.484985,976.966553 845.857483,930.139771 855.302856,883.327698 
	C864.418396,838.150208 873.607971,792.987610 882.747559,747.815002 
	C891.786865,703.137756 900.807129,658.456604 909.829895,613.775940 
	C913.548401,595.361694 917.251404,576.944397 921.026794,558.204285 
	C919.475708,558.081787 918.185120,557.897095 916.893433,557.889771 
	C845.584167,557.482971 774.274841,557.067200 702.965027,556.810120 
	C700.774353,556.802246 698.146667,557.958740 696.452698,559.419128 
	C684.348450,569.854797 672.429443,580.505493 660.461975,591.099548 
	C657.130493,594.048706 653.834045,597.037415 650.521606,600.007996 
	C648.565796,600.324829 646.609985,600.641663 644.654175,600.958496 
	C645.390869,599.248413 646.127502,597.538269 647.355347,595.460449 
	C663.259644,581.714172 678.713623,568.381958 694.013306,554.875000 
	C695.330139,553.712524 695.953125,551.461670 696.345276,549.599854 
	C701.580505,524.743774 706.771118,499.877991 711.855347,474.990601 
	C714.378845,462.637848 716.661804,450.235901 719.320923,437.615234 
	C722.020142,425.505157 724.451904,413.636047 727.173645,400.352020 
	C718.882507,407.566681 711.857483,413.635742 704.882507,419.761780 
	C698.289551,425.552277 691.749023,431.402557 684.873596,437.364319 
	C682.564453,438.823212 680.567139,440.144318 678.569946,441.465424 
	C678.673767,439.722809 678.064270,437.191681 678.988342,436.355682 
	C693.183228,423.513550 707.573853,410.887604 721.928894,398.222656 
	C725.575562,395.005310 729.731995,393.796417 734.703247,393.827942 
	C867.660095,394.672028 1000.617737,395.394714 1133.575195,396.136810 
	C1135.052490,396.145050 1136.529663,396.137848 1138.698486,396.137848 
	C1137.207275,403.844788 1135.854248,411.105621 1134.393066,418.344666 
	C1126.197266,458.954803 1117.984985,499.561615 1109.759644,540.165771 
	C1101.963257,578.652710 1094.112427,617.128601 1086.343628,655.621033 
	C1078.211792,695.912231 1070.168457,736.221252 1062.050415,776.515259 
	C1053.997925,816.483521 1045.898682,856.442261 1037.823730,896.406006 
	C1028.793091,941.099792 1019.812805,985.803772 1010.725342,1030.486084 
	C1001.333740,1076.663208 990.775513,1122.543213 973.834229,1166.664673 
	C954.575256,1216.822021 924.907043,1259.174683 880.302124,1290.174316 
	C878.390320,1291.503052 876.435059,1292.769287 873.975525,1294.473389 
	C857.437195,1303.225830 841.875854,1312.629028 825.319092,1319.702026 
	C785.738037,1336.610474 743.907104,1343.957642 701.079468,1346.308594 
	C632.541382,1350.070923 565.591797,1341.459106 500.142365,1320.893799 
	C469.319855,1311.208862 439.533020,1298.973877 410.615875,1284.587280 
	C403.180847,1280.888306 398.898071,1281.603516 392.876160,1287.328613 
	C390.704437,1289.393188 388.531219,1291.458496 386.298920,1293.456787 
	C375.149628,1303.436768 363.980438,1313.394531 352.818237,1323.360107 
	C348.579346,1323.385132 348.163116,1321.721924 351.194885,1318.304199 
	C365.699463,1304.909912 379.951599,1292.113281 393.734161,1278.829468 
	C397.012360,1275.670044 400.026978,1271.154175 400.938995,1266.796753 
	C407.348602,1236.172363 413.216919,1205.434082 419.166992,1174.714478 
	C421.189880,1164.270508 422.950165,1153.775757 425.068268,1142.967285 
	C429.503723,1121.344482 433.701324,1100.058594 437.827332,1079.135742 
	C435.093323,1076.455811 433.237854,1077.049561 431.024445,1079.107788 
	C426.898987,1082.944092 422.474579,1086.458862 417.814911,1090.085938 
	C416.259186,1089.638794 415.063141,1089.213379 413.867096,1088.787964 
z"/>
<path fill="#FDFDFC" opacity="1.000000" stroke="none" 
	d="
M651.022461,600.033936 
	C653.834045,597.037415 657.130493,594.048706 660.461975,591.099548 
	C672.429443,580.505493 684.348450,569.854797 696.452698,559.419128 
	C698.146667,557.958740 700.774353,556.802246 702.965027,556.810120 
	C774.274841,557.067200 845.584167,557.482971 916.893433,557.889771 
	C918.185120,557.897095 919.475708,558.081787 921.026794,558.204285 
	C917.251404,576.944397 913.548401,595.361694 909.829895,613.775940 
	C900.807129,658.456604 891.786865,703.137756 882.747559,747.815002 
	C873.607971,792.987610 864.418396,838.150208 855.302856,883.327698 
	C845.857483,930.139771 836.484985,976.966553 827.060791,1023.782898 
	C820.547119,1056.141235 812.665833,1088.062500 797.232666,1117.593262 
	C785.758789,1139.548218 770.219299,1157.489136 747.501892,1168.421265 
	C746.610046,1168.850342 745.655151,1169.148315 744.370483,1169.320679 
	C757.526062,1145.150513 766.426880,1119.381836 772.466064,1092.681274 
	C778.411621,1066.394897 783.444580,1039.901367 788.819153,1013.486877 
	C796.151123,977.452393 803.460022,941.413086 810.718994,905.363831 
	C819.291504,862.791565 827.766479,820.199646 836.347900,777.629211 
	C842.692627,746.154236 849.163940,714.704834 855.534302,683.235046 
	C860.977478,656.345337 866.357239,629.442749 872.013367,601.310974 
	C867.234070,601.310974 862.837280,601.328369 858.440552,601.308350 
	C804.460083,601.062866 750.479553,600.832825 696.499268,600.548889 
	C681.506897,600.470032 666.515259,600.227417 651.022461,600.033936 
z"/>
<path fill="#FDFDFB" opacity="1.000000" stroke="none" 
	d="
M1145.692871,779.940918 
	C1134.238037,797.310913 1123.457764,815.219299 1115.335571,834.659119 
	C1097.434692,877.503357 1090.692627,922.207275 1092.600464,968.405762 
	C1093.631714,993.375488 1098.078613,1017.606873 1107.499878,1040.872192 
	C1120.347412,1072.598633 1142.867676,1095.989380 1170.538940,1115.122314 
	C1206.577148,1140.040771 1245.854980,1158.780029 1285.918213,1176.058350 
	C1315.984253,1189.025024 1346.323975,1201.412354 1375.948120,1215.322388 
	C1388.442139,1221.188721 1400.228760,1229.316040 1410.905151,1238.146606 
	C1435.502441,1258.491455 1448.508789,1285.144897 1449.616577,1317.243652 
	C1451.067017,1359.274658 1437.359253,1394.645874 1403.204346,1421.199707 
	C1406.748779,1410.779419 1411.784180,1400.485107 1414.315552,1389.607910 
	C1426.637207,1336.662476 1410.575073,1289.971680 1361.664307,1260.084106 
	C1344.761353,1249.755249 1326.163086,1242.062256 1307.956543,1234.032959 
	C1263.584595,1214.464111 1218.251709,1197.009277 1175.905151,1173.049438 
	C1152.530762,1159.823975 1129.888428,1145.551025 1110.441162,1126.817871 
	C1087.726562,1104.937622 1074.297729,1077.976074 1066.855713,1047.545898 
	C1060.123779,1020.020325 1059.519043,992.088684 1061.468140,964.212463 
	C1065.732056,903.230347 1086.031616,848.177673 1125.560547,800.911133 
	C1131.717041,793.549561 1138.724487,786.899658 1145.692871,779.940918 
z"/>
<path fill="#FDFDFC" opacity="1.000000" stroke="none" 
	d="
M353.085999,1323.560303 
	C363.980438,1313.394531 375.149628,1303.436768 386.298920,1293.456787 
	C388.531219,1291.458496 390.704437,1289.393188 392.876160,1287.328613 
	C398.898071,1281.603516 403.180847,1280.888306 410.615875,1284.587280 
	C439.533020,1298.973877 469.319855,1311.208862 500.142365,1320.893799 
	C565.591797,1341.459106 632.541382,1350.070923 701.079468,1346.308594 
	C743.907104,1343.957642 785.738037,1336.610474 825.319092,1319.702026 
	C841.875854,1312.629028 857.437195,1303.225830 873.795166,1294.729004 
	C867.202271,1301.907471 860.782471,1309.826050 853.241150,1316.471924 
	C815.238464,1349.962769 770.437134,1369.834839 721.399658,1380.711914 
	C674.533508,1391.107178 627.113892,1392.685059 579.356323,1389.229736 
	C501.061157,1383.564941 427.450104,1361.628662 357.621948,1326.266235 
	C356.153015,1325.522217 354.774475,1324.599731 353.085999,1323.560303 
z"/>
<path fill="#FDFCFB" opacity="1.000000" stroke="none" 
	d="
M946.260620,1581.123291 
	C955.094055,1569.551880 964.177429,1558.079224 973.538574,1546.837769 
	C974.259766,1545.971558 977.125549,1546.231323 978.676208,1546.814453 
	C1002.943359,1555.938965 1026.944458,1565.819580 1051.430664,1574.302979 
	C1099.220703,1590.859741 1148.309082,1602.263062 1198.623535,1607.689453 
	C1259.946167,1614.303223 1321.061035,1612.978149 1381.556274,1599.932861 
	C1437.004028,1587.976074 1487.871460,1565.946899 1532.055420,1529.716309 
	C1534.462402,1527.742554 1536.951050,1525.868408 1539.737061,1523.789429 
	C1537.546875,1527.361572 1535.443359,1531.479736 1532.429321,1534.761597 
	C1506.011841,1563.525879 1475.178345,1586.482666 1440.216919,1603.842773 
	C1406.064941,1620.801025 1370.009033,1631.804688 1332.477295,1638.371948 
	C1294.790405,1644.966431 1256.814697,1647.820190 1218.665405,1646.309204 
	C1194.941895,1645.369629 1171.226685,1642.847778 1147.648438,1639.907837 
	C1100.187134,1633.989746 1054.190552,1621.654175 1009.203369,1605.674561 
	C988.103027,1598.179565 967.441101,1589.450439 946.260620,1581.123291 
z"/>
<path fill="#FDFCFB" opacity="1.000000" stroke="none" 
	d="
M1286.608154,862.769165 
	C1291.590088,852.354553 1299.627197,843.984375 1308.253906,836.209412 
	C1332.611816,814.256714 1361.550415,801.376465 1393.679077,797.071228 
	C1466.441162,787.321106 1536.462769,797.371887 1602.463623,830.313293 
	C1616.660889,837.399231 1629.541992,847.121887 1643.123047,856.308594 
	C1642.888794,858.930359 1642.602539,860.881592 1642.225830,862.815125 
	C1639.901367,874.741272 1637.556641,886.663452 1635.218750,898.586975 
	C1633.628906,900.674194 1632.038940,902.761414 1630.161865,905.052856 
	C1615.358276,894.692566 1601.411255,883.212158 1586.204346,873.758423 
	C1556.578979,855.341125 1523.981567,844.118164 1489.899780,836.904297 
	C1456.462280,829.826904 1422.633423,827.389282 1388.635376,829.022766 
	C1352.858032,830.741699 1319.095215,839.818909 1289.465820,861.104919 
	C1288.662354,861.682129 1287.743286,862.098206 1286.608154,862.769165 
z"/>
<path fill="#FDFCFB" opacity="1.000000" stroke="none" 
	d="
M424.830444,1143.304199 
	C422.950165,1153.775757 421.189880,1164.270508 419.166992,1174.714478 
	C413.216919,1205.434082 407.348602,1236.172363 400.938995,1266.796753 
	C400.026978,1271.154175 397.012360,1275.670044 393.734161,1278.829468 
	C379.951599,1292.113281 365.699463,1304.909912 351.285706,1317.968506 
	C354.065674,1301.382690 357.092834,1284.696777 360.310242,1268.047729 
	C367.598785,1230.331543 374.996887,1192.636597 382.317078,1154.926514 
	C385.041779,1140.890015 387.673492,1126.835693 390.698425,1112.382324 
	C392.520996,1111.790039 393.992737,1111.604858 395.700745,1111.729980 
	C405.568146,1122.461670 415.199310,1132.882935 424.830444,1143.304199 
z"/>
<path fill="#FDFCFA" opacity="1.000000" stroke="none" 
	d="
M678.527283,441.861542 
	C680.567139,440.144318 682.564453,438.823212 685.251953,437.487732 
	C696.979309,437.600952 708.016479,437.728607 719.053589,437.856262 
	C716.661804,450.235901 714.378845,462.637848 711.855347,474.990601 
	C706.771118,499.877991 701.580505,524.743774 696.345276,549.599854 
	C695.953125,551.461670 695.330139,553.712524 694.013306,554.875000 
	C678.713623,568.381958 663.259644,581.714172 647.509644,595.150269 
	C650.312622,579.562073 653.394043,563.904358 656.604553,548.273071 
	C663.864075,512.927673 671.187317,477.595306 678.527283,441.861542 
z"/>
<path fill="#FCFBF8" opacity="1.000000" stroke="none" 
	d="
M977.950623,1393.723145 
	C979.550842,1392.556519 981.158447,1391.744751 983.313599,1391.214478 
	C989.085327,1395.530396 994.309448,1399.564697 999.533569,1403.599121 
	C998.124878,1412.101074 996.936340,1420.646362 995.269226,1429.097290 
	C988.441406,1463.708862 981.556213,1498.309814 974.418152,1532.858154 
	C973.657471,1536.540039 971.630005,1540.261719 969.289307,1543.262207 
	C960.278503,1554.812744 950.901184,1566.077515 941.366943,1577.554810 
	C944.687195,1559.137451 948.265686,1540.607178 951.924561,1522.092651 
	C955.649475,1503.244385 959.458252,1484.412476 963.221863,1465.571899 
	C966.985718,1446.730225 970.707764,1427.880127 974.518066,1409.047974 
	C975.533020,1404.031372 976.804382,1399.066650 977.950623,1393.723145 
z"/>
<path fill="#382A06" opacity="1.000000" stroke="none" 
	d="
M395.464478,1111.419556 
	C393.992737,1111.604858 392.520996,1111.790039 390.675507,1111.948853 
	C387.459045,1108.879272 390.946259,1107.851929 392.298645,1106.661499 
	C399.153931,1100.627686 406.214783,1094.827393 413.535339,1088.866577 
	C415.063141,1089.213379 416.259186,1089.638794 417.709961,1090.403564 
	C410.464661,1097.635010 402.964569,1104.527344 395.464478,1111.419556 
z"/>
<path fill="#382A06" opacity="1.000000" stroke="none" 
	d="
M443.308777,1066.430664 
	C441.397522,1067.462524 439.421875,1068.162598 437.051941,1068.822021 
	C438.885529,1067.966309 438.890228,1061.692383 443.308777,1066.430664 
z"/>
<path fill="#382A06" opacity="1.000000" stroke="none" 
	d="
M418.624390,1083.996216 
	C417.799652,1085.256836 416.651306,1086.578491 415.146027,1087.885254 
	C415.959656,1086.599365 417.130219,1085.328247 418.624390,1083.996216 
z"/>
<path fill="#382A06" opacity="1.000000" stroke="none" 
	d="
M435.748199,1069.229004 
	C435.204285,1070.115967 434.344849,1071.020508 433.143494,1071.901367 
	C433.678589,1071.000732 434.555603,1070.123657 435.748199,1069.229004 
z"/>
<path fill="#382A06" opacity="1.000000" stroke="none" 
	d="
M428.677429,1075.047241 
	C428.155975,1075.971680 427.314423,1076.944580 426.118988,1077.885742 
	C426.629181,1076.934570 427.493256,1076.015259 428.677429,1075.047241 
z"/>
<path fill="#382A06" opacity="1.000000" stroke="none" 
	d="
M421.720306,1081.113281 
	C421.230225,1082.033936 420.423340,1082.990723 419.275513,1083.946655 
	C419.757507,1083.013672 420.580505,1082.081421 421.720306,1081.113281 
z"/>
<path fill="#382A06" opacity="1.000000" stroke="none" 
	d="
M460.909851,1086.695312 
	C459.995544,1086.195068 459.023895,1085.380005 458.065430,1084.217651 
	C459.003265,1084.707153 459.927917,1085.543945 460.909851,1086.695312 
z"/>
<path fill="#382A06" opacity="1.000000" stroke="none" 
	d="
M453.807526,1078.772705 
	C453.242889,1078.583984 452.633881,1078.099731 452.020386,1077.298340 
	C452.598328,1077.479858 453.180725,1077.978516 453.807526,1078.772705 
z"/>
<path fill="#382A06" opacity="1.000000" stroke="none" 
	d="
M451.972900,1076.680176 
	C451.379456,1076.484497 450.740417,1075.983887 450.109406,1075.145508 
	C450.720734,1075.330322 451.324036,1075.852661 451.972900,1076.680176 
z"/>
<path fill="#FDFDFB" opacity="1.000000" stroke="none" 
	d="
M1147.911621,777.279785 
	C1147.824951,777.553345 1147.588379,778.062622 1147.149292,778.769470 
	C1147.218384,778.483154 1147.490112,777.999268 1147.911621,777.279785 
z"/>
<path fill="#FDFDFC" opacity="1.000000" stroke="none" 
	d="
M743.982666,1169.128662 
	C744.031799,1169.253174 743.969971,1169.566650 743.612061,1169.934570 
	C743.508850,1169.771606 743.694031,1169.547729 743.982666,1169.128662 
z"/>
<path fill="#FDFDFB" opacity="1.000000" stroke="none" 
	d="
M1146.693237,779.024170 
	C1146.783203,779.231201 1146.619995,779.544189 1146.207520,779.953247 
	C1146.118774,779.742920 1146.279541,779.436523 1146.693237,779.024170 
z"/>
<path fill="#F0B106" opacity="1.000000" stroke="none" 
	d="
M1635.558228,898.471680 
	C1637.556641,886.663452 1639.901367,874.741272 1642.225830,862.815125 
	C1642.602539,860.881592 1642.888794,858.930359 1643.352295,856.592896 
	C1648.957397,860.506348 1654.426880,864.814209 1660.609253,869.683655 
	C1652.118896,879.535156 1644.008301,888.945801 1635.558228,898.471680 
z"/>
<path fill="#EEAF03" opacity="1.000000" stroke="none" 
	d="
M999.831421,1403.267334 
	C994.309448,1399.564697 989.085327,1395.530396 983.654114,1391.191650 
	C987.694824,1386.076416 991.918945,1381.244385 996.197876,1376.461426 
	C999.623962,1372.631958 1003.116516,1368.862061 1007.767456,1365.310059 
	C1005.221436,1377.851929 1002.675354,1390.393799 999.831421,1403.267334 
z"/>
<path fill="#F4B302" opacity="1.000000" stroke="none" 
	d="
M395.700745,1111.729980 
	C402.964569,1104.527344 410.464661,1097.635010 418.069641,1090.425171 
	C422.474579,1086.458862 426.898987,1082.944092 431.024445,1079.107788 
	C433.237854,1077.049561 435.093323,1076.455811 437.827332,1079.135742 
	C433.701324,1100.058594 429.503723,1121.344482 425.068298,1142.967285 
	C415.199310,1132.882935 405.568146,1122.461670 395.700745,1111.729980 
z"/>
<path fill="#F0B104" opacity="1.000000" stroke="none" 
	d="
M719.320923,437.615265 
	C708.016479,437.728607 696.979309,437.600952 685.563843,437.349915 
	C691.749023,431.402557 698.289551,425.552277 704.882507,419.761780 
	C711.857483,413.635742 718.882507,407.566681 727.173645,400.352020 
	C724.451904,413.636047 722.020142,425.505157 719.320923,437.615265 
z"/>
</svg>